<svg width="279" height="291" viewBox="0 0 279 291" fill="none" xmlns="http://www.w3.org/2000/svg">
<rect width="278.5" height="290.667" rx="8" fill="black"/>
<path d="M129.8 95.0664C139.245 85.6216 153.419 83.7916 164.697 89.5752C167.804 91.1684 171.554 91.3098 174.772 89.956C185.679 85.3692 198.745 87.5168 207.628 96.3994C219.343 108.115 219.343 127.111 207.628 138.826L149.658 196.796C140.015 206.439 125.441 208.144 114.053 201.913C111.13 200.314 107.586 200.027 104.444 201.136C93.8913 204.859 81.6727 202.501 73.2314 194.061C61.5157 182.345 61.5158 163.35 73.2314 151.635L129.8 95.0664ZM187.869 98.8554C185.185 98.8554 182.707 99.5098 180.436 100.817C179.287 101.479 178.243 102.299 177.306 103.277C177.31 103.286 177.316 103.294 177.32 103.303H177.321C177.334 103.326 177.347 103.35 177.36 103.373H177.359C179.408 107.093 180.267 111.292 180.267 115.684C180.267 120.077 179.407 124.268 177.404 128.012C178.316 128.963 179.327 129.775 180.436 130.447C182.776 131.824 185.254 132.512 187.869 132.512C190.553 132.512 193.065 131.858 195.405 130.551C197.745 129.174 199.604 127.246 200.98 124.769C202.357 122.222 203.045 119.193 203.045 115.684C203.045 112.174 202.357 109.18 200.98 106.702C199.604 104.156 197.745 102.228 195.405 100.92C193.065 99.5436 190.553 98.8555 187.869 98.8554ZM158.591 98.8623C156.098 98.9388 153.787 99.5914 151.657 100.817C149.386 102.125 147.527 104.052 146.082 106.599C144.706 109.076 144.018 112.036 144.018 115.478C144.018 118.919 144.706 121.947 146.082 124.562C147.527 127.109 149.386 129.071 151.657 130.447C153.848 131.736 156.16 132.421 158.593 132.503C160.922 132.431 163.12 131.861 165.187 130.788L165.627 130.551C167.967 129.174 169.826 127.246 171.202 124.769C172.578 122.222 173.267 119.193 173.267 115.684C173.267 112.393 172.662 109.556 171.452 107.173L171.202 106.702C169.826 104.156 167.967 102.228 165.627 100.92C163.433 99.6296 161.088 98.9439 158.592 98.8633L158.591 98.8623Z" fill="white"/>
</svg>
